<svg width="62" height="61" viewBox="0 0 62 61" fill="none" xmlns="http://www.w3.org/2000/svg">
<g clip-path="url(#clip0)">
<path d="M61.9249 15.7759C61.9249 13.4527 60.0105 11.5691 57.6491 11.5691H4.35064C1.98931 11.5691 0.0748291 13.4527 0.0748291 15.7759V20.372C0.121813 21.0136 0.28868 21.6404 0.566589 22.2231C1.29557 20.8674 2.71624 20.0082 4.27592 19.9829H57.724C59.2985 19.9934 60.7396 20.8537 61.476 22.2231C61.7646 21.6425 61.9421 21.0157 61.9999 20.372L61.9249 15.7759Z" fill="#FD9133"/>
<path d="M56.655 60.9999V54.9104C56.6539 53.3749 56.3674 51.853 55.8105 50.4195L48.1032 30.5L54.5171 0.00012207H7.48275L13.8966 30.5L6.18935 50.4195C5.63245 51.853 5.34594 53.3749 5.34485 54.9104V60.9999H56.655Z" fill="#F2BB80"/>
<path d="M32.0687 44.1724H29.9308V47.3276H32.0687V44.1724Z" fill="#E3A35F"/>
<path d="M21.7427 7.18332L24.9496 5.61627C28.7721 3.73791 33.2704 3.73791 37.0929 5.61627L40.2999 7.18332C43.2801 8.65148 46.7062 8.98496 49.9205 8.1194L52.999 7.29901L54.5169 0.00012207H7.48273L9.02206 7.29901L12.1006 8.1194C15.3215 8.99127 18.7571 8.65792 21.7427 7.18332Z" fill="#ED61B5"/>
<path d="M30.9999 55.7413L5.79387 51.6081C5.49452 52.684 5.34388 53.7946 5.34485 54.9105V61H56.655V54.9105C56.6561 53.7946 56.5053 52.684 56.206 51.6081L30.9999 55.7413Z" fill="#ED61B5"/>
<path d="M12.0045 35.3905L11.0424 37.8725L55.0302 48.4003L53.8757 45.4029L12.0045 35.3905Z" fill="#EBB071"/>
<path d="M21.7427 7.18332L24.9496 5.61627C28.7721 3.73791 33.2704 3.73791 37.0929 5.61627L40.2999 7.18332C43.2801 8.65148 46.7062 8.98496 49.9205 8.1194L52.999 7.29901L54.5169 0.00012207H7.48273L9.02206 7.29901L12.1006 8.1194C15.3215 8.99127 18.7571 8.65792 21.7427 7.18332Z" fill="#ED61B5"/>
<path d="M13.2872 35.7586L11.7158 36.1267L9.46029 36.6631L0 38.9138V47.3275L8.12415 45.3924L13.052 44.2249L30.9999 39.9654L13.2872 35.7586Z" fill="#FDB62F"/>
<path d="M30.9999 39.9654L13.2873 35.7586L11.7158 36.1267L9.46034 36.6631L8.07068 36.9997L25.1527 41.3538L30.9999 39.9654Z" fill="#F7A540"/>
<path d="M52.5395 36.6631L50.2412 36.1268L48.7127 35.7586L30.9999 31.5518L13.2338 27.3449L6.64899 25.7674L4.15834 25.1785C1.86314 24.6272 0.186 22.6889 6.58285e-07 20.3719C6.58285e-07 20.2351 6.58285e-07 20.109 6.58285e-07 19.9828V29.2905C-0.00108918 31.234 1.35116 32.9252 3.27097 33.3816L8.69062 34.7068L11.983 35.4957L13.2872 35.8007L30.9999 39.9655L48.9371 44.1723L53.8756 45.3397L61.9998 47.3275V38.9137L52.5395 36.6631Z" fill="#FDB62F"/>
<path d="M61.9998 20.3719C61.818 22.6805 60.1557 24.6156 57.8736 25.1782L55.383 25.7672L48.7661 27.3447L30.9999 31.5518L48.7126 35.7586L50.0167 35.4536L53.3091 34.7068L58.7288 33.4237C60.6647 32.9631 62.0212 31.2498 61.9998 29.2905V19.9828C61.9998 20.109 61.9998 20.2352 61.9998 20.3719Z" fill="#FDB62F"/>
<path d="M61.9998 20.3719C61.818 22.6805 60.1557 24.6156 57.8736 25.1782L55.383 25.7672L48.7661 27.3447L30.9999 31.5518L48.7126 35.7586L50.0167 35.4536L53.3091 34.7068L58.7288 33.4237C60.6647 32.9631 62.0212 31.2498 61.9998 29.2905V19.9828C61.9998 20.109 61.9998 20.2352 61.9998 20.3719Z" fill="#FDB62F"/>
<path d="M61.9998 20.3719C61.818 22.6805 60.1557 24.6156 57.8736 25.1782L55.383 25.7672L48.7661 27.3447L30.9999 31.5518L48.7126 35.7586L50.0167 35.4536L53.3091 34.7068L58.7288 33.4237C60.6647 32.9631 62.0212 31.2498 61.9998 29.2905V19.9828C61.9998 20.109 61.9998 20.2352 61.9998 20.3719Z" fill="#FDB62F"/>
<path d="M0 38.9138V47.3275L4.2758 46.3074V37.8936L0 38.9138Z" fill="#E5E5E5"/>
<path d="M61.9998 38.9138L57.724 37.8936V46.3074L61.9998 47.3275V38.9138Z" fill="#E5E5E5"/>
<path d="M51.31 36.3791V39.9654H53.4479V36.8839L52.5393 36.6631L51.31 36.3791Z" fill="#8C421C"/>
<path d="M48.1032 38.9138V35.6113L45.9653 35.1065V38.9138H48.1032Z" fill="#8C421C"/>
<path d="M40.6205 36.8104H42.7584V34.3493L40.6205 33.8339V36.8104Z" fill="#8C421C"/>
<path d="M35.2756 35.7586H37.4137V33.0768L35.2756 32.5718V35.7586Z" fill="#8C421C"/>
<path d="M32.0687 34.7068V31.8041L30.9997 31.5517L29.9307 31.2993V34.7068H32.0687Z" fill="#8C421C"/>
<path d="M26.724 33.6552V30.5316L24.586 30.0268V33.6552H26.724Z" fill="#8C421C"/>
<path d="M21.3792 32.6034V29.2695L19.2413 28.7541V32.6034H21.3792Z" fill="#8C421C"/>
<path d="M16.0344 30.5V27.9969L13.8965 27.4921V30.5H16.0344Z" fill="#8C421C"/>
<path d="M10.6895 29.4482V26.7243L8.55164 26.2195V29.4482H10.6895Z" fill="#8C421C"/>
<path d="M5.34475 28.3966V25.4623L4.15816 25.1784C3.83314 25.0932 3.51467 24.9849 3.20673 24.8523V28.3966H5.34475Z" fill="#8C421C"/>
<path d="M10.6895 39.9654V36.3791L9.4602 36.6631L8.55164 36.8839V39.9654H10.6895Z" fill="#8C421C"/>
<path d="M16.0344 38.9138V36.4106L13.8965 35.9059V38.9138H16.0344Z" fill="#8C421C"/>
<path d="M42.7584 31.5517V28.7541L40.6205 29.2695V31.5517H42.7584Z" fill="#8C421C"/>
<path d="M48.1032 30.5V27.4921L45.9653 27.9969V30.5H48.1032Z" fill="#8C421C"/>
<path d="M53.4479 29.4482V26.2195L51.31 26.7243V29.4482H53.4479Z" fill="#8C421C"/>
<path d="M58.7927 28.3966V24.8523C58.4849 24.9847 58.1663 25.0932 57.8413 25.1784L56.6547 25.4623V28.3966H58.7927Z" fill="#8C421C"/>
</g>
<defs>
<clipPath id="clip0">
<rect width="62" height="61" fill="white"/>
</clipPath>
</defs>
</svg>
