<svg width="30" height="30" viewBox="0 0 30 30" fill="none" xmlns="http://www.w3.org/2000/svg">
<path d="M18.6691 9.33325L14.9999 13.0024L11.3308 9.33325L9.33325 11.3308L13.0024 14.9999L9.33325 18.6691L11.3308 20.6666L14.9999 16.9974L18.6691 20.6666L20.6666 18.6691L16.9974 14.9999L20.6666 11.3308L18.6691 9.33325ZM14.9999 0.833252C7.16575 0.833252 0.833252 7.16575 0.833252 14.9999C0.833252 22.8341 7.16575 29.1666 14.9999 29.1666C22.8341 29.1666 29.1666 22.8341 29.1666 14.9999C29.1666 7.16575 22.8341 0.833252 14.9999 0.833252ZM14.9999 26.3333C8.75242 26.3333 3.66659 21.2474 3.66659 14.9999C3.66659 8.75242 8.75242 3.66659 14.9999 3.66659C21.2474 3.66659 26.3333 8.75242 26.3333 14.9999C26.3333 21.2474 21.2474 26.3333 14.9999 26.3333Z" fill="white"/>
</svg>
