<svg width="34" height="34" viewBox="0 0 34 34" fill="none" xmlns="http://www.w3.org/2000/svg">
<path d="M20.6691 11.3333L16.9999 15.0024L13.3308 11.3333L11.3333 13.3308L15.0024 16.9999L11.3333 20.6691L13.3308 22.6666L16.9999 18.9974L20.6691 22.6666L22.6666 20.6691L18.9974 16.9999L22.6666 13.3308L20.6691 11.3333ZM16.9999 2.83325C9.16575 2.83325 2.83325 9.16575 2.83325 16.9999C2.83325 24.8341 9.16575 31.1666 16.9999 31.1666C24.8341 31.1666 31.1666 24.8341 31.1666 16.9999C31.1666 9.16575 24.8341 2.83325 16.9999 2.83325ZM16.9999 28.3333C10.7524 28.3333 5.66659 23.2474 5.66659 16.9999C5.66659 10.7524 10.7524 5.66659 16.9999 5.66659C23.2474 5.66659 28.3333 10.7524 28.3333 16.9999C28.3333 23.2474 23.2474 28.3333 16.9999 28.3333Z" fill="#7E7E7E"/>
</svg>
