<svg width="506" height="25" viewBox="0 0 506 25" fill="none" xmlns="http://www.w3.org/2000/svg">
<path d="M279.82 24.89C280.143 24.7458 280.297 24.4853 280.211 24.2321C271.937 -0.0867165 255.745 -0.658632 249.167 0.224396C240.633 1.36992 236.355 6.42061 238.523 12.792C241.261 20.8389 253.458 20.9643 260.009 21.0323C268.83 21.122 274.65 23.1438 278.737 24.8938C279.07 25.0365 279.497 25.0355 279.82 24.89ZM260.002 19.753C251.689 19.667 242.636 19.0333 240.425 12.5366C238.513 6.91466 242.197 2.47043 249.593 1.4776C255.47 0.688799 269.782 1.27319 277.786 23.0112C273.621 21.4041 267.976 19.8332 260.002 19.753Z" fill="black"/>
<path d="M261.169 11.6684C261.425 11.3583 261.318 10.9058 260.933 10.6561C248.244 2.4991 229.967 1.65571 225.649 3.48425C225.248 3.65401 225.115 4.0834 225.351 4.44267C225.588 4.80195 226.105 4.95577 226.506 4.78602C229.901 3.34864 247.185 3.5401 259.999 11.7772C260.388 12.0256 260.911 11.9771 261.169 11.6684Z" fill="black"/>
<path d="M0 14C0 14 201.966 13.2 206 14V11L0 14Z" fill="url(#paint0_linear)"/>
<path d="M506 14C506 14 304.034 13.2 300 14V11L506 14Z" fill="url(#paint1_linear)"/>
<defs>
<linearGradient id="paint0_linear" x1="206" y1="12" x2="-0.696012" y2="15.1122" gradientUnits="userSpaceOnUse">
<stop/>
<stop offset="1" stop-opacity="0.12"/>
</linearGradient>
<linearGradient id="paint1_linear" x1="300" y1="12" x2="506.696" y2="15.1122" gradientUnits="userSpaceOnUse">
<stop/>
<stop offset="1" stop-opacity="0.12"/>
</linearGradient>
</defs>
</svg>
