<svg width="24" height="24" viewBox="0 0 24 24" fill="none" xmlns="http://www.w3.org/2000/svg">
<g clip-path="url(#clip0)">
<path d="M23.9765 7.05607C23.9203 5.78085 23.7141 4.90416 23.4187 4.14449C23.1139 3.33812 22.6451 2.61617 22.0308 2.01602C21.4307 1.40652 20.704 0.932921 19.907 0.632936C19.1429 0.337529 18.2708 0.131312 16.9956 0.0750879C15.7108 0.0141019 15.303 0 12.0445 0C8.78609 0 8.37824 0.0141019 7.09826 0.0703262C5.82305 0.126551 4.94636 0.332951 4.18687 0.628174C3.38032 0.932922 2.65838 1.40176 2.05822 2.01602C1.44873 2.61617 0.975309 3.34288 0.675141 4.13991C0.379735 4.90416 0.173518 5.77609 0.117294 7.0513C0.0563077 8.33604 0.0422058 8.7439 0.0422058 12.0023C0.0422058 15.2608 0.0563077 15.6686 0.112532 16.9486C0.168756 18.2238 0.375156 19.1005 0.670563 19.8602C0.975309 20.6666 1.44873 21.3885 2.05822 21.9887C2.65838 22.5982 3.38508 23.0718 4.18211 23.3718C4.94636 23.6672 5.81829 23.8734 7.09368 23.9296C8.37347 23.986 8.78151 23.9999 12.04 23.9999C15.2984 23.9999 15.7063 23.986 16.9862 23.9296C18.2614 23.8734 19.1381 23.6672 19.8976 23.3718C21.5105 22.7482 22.7858 21.4729 23.4094 19.8602C23.7046 19.096 23.911 18.2238 23.9672 16.9486C24.0234 15.6686 24.0375 15.2608 24.0375 12.0023C24.0375 8.7439 24.0328 8.33604 23.9765 7.05607ZM21.8153 16.8549C21.7636 18.027 21.5668 18.6599 21.4027 19.0819C20.9994 20.1274 20.1696 20.9572 19.124 21.3605C18.7021 21.5246 18.0646 21.7215 16.897 21.7729C15.6312 21.8293 15.2515 21.8433 12.0493 21.8433C8.84708 21.8433 8.46266 21.8293 7.20137 21.7729C6.02927 21.7215 5.39633 21.5246 4.97438 21.3605C4.45407 21.1682 3.98047 20.8634 3.59606 20.4649C3.19754 20.0758 2.8928 19.6069 2.7005 19.0866C2.5364 18.6647 2.33953 18.027 2.28806 16.8596C2.23166 15.5937 2.21774 15.2139 2.21774 12.0117C2.21774 8.80946 2.23166 8.42505 2.28806 7.16394C2.33953 5.99183 2.5364 5.3589 2.7005 4.93694C2.8928 4.41645 3.19754 3.94303 3.60082 3.55843C3.98981 3.15992 4.45865 2.85517 4.97914 2.66306C5.4011 2.49896 6.03879 2.30209 7.20613 2.25044C8.472 2.19422 8.85184 2.18011 12.0539 2.18011C15.2609 2.18011 15.6405 2.19422 16.9018 2.25044C18.0739 2.30209 18.7068 2.49896 19.1288 2.66306C19.6491 2.85517 20.1227 3.15992 20.5071 3.55843C20.9056 3.94761 21.2104 4.41645 21.4027 4.93694C21.5668 5.3589 21.7636 5.99641 21.8153 7.16394C21.8715 8.42981 21.8856 8.80946 21.8856 12.0117C21.8856 15.2139 21.8715 15.589 21.8153 16.8549Z" fill="black"/>
<path d="M12.0445 5.83716C8.64086 5.83716 5.87927 8.59856 5.87927 12.0024C5.87927 15.4063 8.64086 18.1677 12.0445 18.1677C15.4484 18.1677 18.2098 15.4063 18.2098 12.0024C18.2098 8.59856 15.4484 5.83716 12.0445 5.83716ZM12.0445 16.0017C9.8364 16.0017 8.04528 14.2107 8.04528 12.0024C8.04528 9.79411 9.8364 8.00317 12.0445 8.00317C14.2529 8.00317 16.0438 9.79411 16.0438 12.0024C16.0438 14.2107 14.2529 16.0017 12.0445 16.0017Z" fill="black"/>
<path d="M19.893 5.59336C19.893 6.3882 19.2485 7.03267 18.4535 7.03267C17.6587 7.03267 17.0142 6.3882 17.0142 5.59336C17.0142 4.79835 17.6587 4.15405 18.4535 4.15405C19.2485 4.15405 19.893 4.79835 19.893 5.59336Z" fill="black"/>
</g>
<defs>
<clipPath id="clip0">
<rect width="24" height="24" fill="white"/>
</clipPath>
</defs>
</svg>
