<svg width="506" height="34" viewBox="0 0 506 34" fill="none" xmlns="http://www.w3.org/2000/svg">
<path d="M0 17C0 17 201.966 16.2 206 17V14L0 17Z" fill="url(#paint0_linear)"/>
<path d="M506 17C506 17 304.034 16.2 300 17V14L506 17Z" fill="url(#paint1_linear)"/>
<g clip-path="url(#clip0)">
<path d="M273.825 9.33876L266.628 -0.0104078C266.361 -0.356187 265.875 -0.441484 265.507 -0.207246L260.86 2.74795H254.8C254.722 2.74795 254.644 2.76469 254.568 2.78667L249.869 4.13927L244.994 2.80569L240.256 -0.207246C239.894 -0.437547 239.417 -0.359468 239.147 -0.0254987L231.187 9.83479C230.901 10.1891 230.948 10.7065 231.293 11.0034L235.466 14.594L239.209 19.6383C238.114 20.8046 238.135 22.6441 239.274 23.7834C239.779 24.288 240.421 24.5731 241.082 24.6393C241.059 24.7889 241.047 24.9408 241.047 25.095C241.047 25.8909 241.357 26.6392 241.92 27.2019C242.483 27.7648 243.231 28.0748 244.027 28.0748C244.038 28.0748 244.048 28.0742 244.059 28.0738C244.058 28.0942 244.057 28.1142 244.057 28.1345C244.057 28.9304 244.367 29.6787 244.93 30.2417C245.493 30.8043 246.241 31.1143 247.037 31.1143C247.194 31.1143 247.35 31.1015 247.502 31.0779C247.567 31.7406 247.853 32.3856 248.359 32.8921C248.94 33.4731 249.703 33.7635 250.466 33.7635C251.229 33.7635 251.992 33.4731 252.573 32.8921L253.029 32.4364L253.22 32.5906C253.796 33.1487 254.544 33.4275 255.292 33.4275C256.055 33.4275 256.818 33.1372 257.399 32.5562C257.992 31.9634 258.282 31.1809 258.27 30.4024C259.048 30.4143 259.831 30.1242 260.424 29.5318C261.016 28.9393 261.306 28.1575 261.295 27.3793C262.105 27.3921 262.874 27.0808 263.448 26.507C264.041 25.9142 264.331 25.1318 264.319 24.3533C265.098 24.3651 265.88 24.0751 266.473 23.4823C267.485 22.4705 267.615 20.9066 266.865 19.7522L269.598 14.0281L273.707 10.4922C274.046 10.1999 274.098 9.6934 273.825 9.33876ZM239.986 1.61974L243.393 3.78595L235.982 12.8143L233.013 10.2583L239.986 1.61974ZM240.467 20.7616L241.495 19.7335C241.526 19.7023 241.559 19.6728 241.593 19.6452C241.794 19.4812 242.037 19.3834 242.295 19.3601C242.302 19.3595 242.31 19.3595 242.317 19.3591C242.354 19.3562 242.39 19.3542 242.427 19.3546C242.78 19.3595 243.107 19.5035 243.35 19.7597C243.826 20.2633 243.801 21.0861 243.293 21.5939L242.296 22.5909C241.792 23.0951 240.971 23.0951 240.467 22.5909C239.963 22.0863 239.963 21.2659 240.467 20.7616ZM243.112 26.0093C242.868 25.7653 242.733 25.4405 242.733 25.095C242.733 24.7496 242.868 24.4248 243.112 24.1804L245.106 22.1867C245.488 21.8049 246.088 21.7002 246.576 21.9328C247.079 22.1726 247.363 22.7189 247.289 23.2684C247.249 23.5617 247.113 23.8379 246.904 24.0475L244.941 26.0093C244.697 26.2537 244.372 26.3883 244.027 26.3883C243.681 26.3883 243.357 26.2537 243.112 26.0093ZM246.122 29.0489C245.878 28.8048 245.744 28.48 245.744 28.1345C245.744 27.7891 245.878 27.4643 246.122 27.2199L248.116 25.2262C248.524 24.8181 249.179 24.7302 249.679 25.0212C250.136 25.2869 250.375 25.8086 250.297 26.3282C250.254 26.614 250.118 26.8826 249.914 27.087L247.952 29.0489C247.707 29.2933 247.383 29.4278 247.037 29.4278C246.692 29.4278 246.367 29.2933 246.122 29.0489ZM249.551 31.6996C249.047 31.1954 249.047 30.3749 249.551 29.8707L250.58 28.8425C250.611 28.8113 250.643 28.7821 250.677 28.7546C250.678 28.7539 250.678 28.7533 250.679 28.7526C250.846 28.6168 251.043 28.5259 251.252 28.4862C251.257 28.4856 251.262 28.4849 251.267 28.4843C251.303 28.4777 251.34 28.4724 251.377 28.4692C251.391 28.4678 251.406 28.4678 251.421 28.4669C251.451 28.4652 251.481 28.4633 251.512 28.4636C251.864 28.4685 252.192 28.6122 252.434 28.8687C252.464 28.9002 252.492 28.933 252.518 28.9668C252.905 29.4737 252.853 30.2266 252.372 30.7082L251.38 31.6999C250.876 32.2042 250.056 32.2038 249.551 31.6996ZM265.28 22.2897C264.776 22.7943 263.956 22.794 263.451 22.2897C263.433 22.2714 263.414 22.2543 263.394 22.2382L257.972 16.7596C257.645 16.4286 257.111 16.4259 256.78 16.7537C256.449 17.0811 256.446 17.6148 256.774 17.9459L262.254 23.4832C262.255 23.4839 262.255 23.4846 262.256 23.4852C262.76 23.9894 262.76 24.8103 262.256 25.3145C262.012 25.5589 261.687 25.6934 261.341 25.6934C260.996 25.6934 260.671 25.5589 260.427 25.3145L256.761 21.6103C256.433 21.2793 255.899 21.2767 255.568 21.6041C255.237 21.9318 255.235 22.4656 255.562 22.7966L259.172 26.444C259.191 26.467 259.21 26.489 259.231 26.51C259.735 27.0142 259.735 27.835 259.231 28.3392C258.727 28.8435 257.906 28.8432 257.402 28.3389L255.401 26.3171C255.073 25.986 254.539 25.9831 254.208 26.3108C253.877 26.6382 253.875 27.172 254.202 27.503L256.147 29.4681C256.165 29.4911 256.185 29.5134 256.206 29.5344C256.711 30.0386 256.711 30.8594 256.206 31.3637C255.702 31.8682 254.882 31.8679 254.378 31.3637C254.319 31.3056 254.251 31.261 254.186 31.2111C254.131 31.1691 254.117 31.1399 254.144 31.073C254.172 31.0051 254.214 30.9437 254.242 30.8755C254.273 30.7994 254.297 30.721 254.322 30.6423C254.451 30.2256 254.489 29.7775 254.431 29.3451C254.319 28.5154 253.863 27.7668 253.172 27.2931C252.798 27.0375 252.365 26.8699 251.917 26.8069C252.135 25.8489 251.874 24.8103 251.195 24.0934C250.637 23.5036 249.883 23.1726 249.071 23.1614C249.042 23.1611 249.012 23.1611 248.982 23.1614C249.001 22.3872 248.719 21.6179 248.185 21.0539C247.627 20.4641 246.872 20.1331 246.061 20.1219C245.82 20.1186 245.577 20.1442 245.342 20.1983C245.242 19.4999 244.89 18.8536 244.356 18.3914C243.827 17.9327 243.16 17.6782 242.451 17.6683C241.704 17.6575 240.97 17.9331 240.415 18.434L237.156 14.0422L244.953 4.54279L247.438 5.22254L244.193 10.9496C243.8 11.6421 243.701 12.4459 243.914 13.2129C244.126 13.9802 244.624 14.6186 245.316 15.011C245.36 15.0356 245.403 15.0589 245.448 15.0812C245.451 15.0828 245.454 15.0845 245.458 15.0861C245.574 15.1442 245.694 15.194 245.815 15.236C246.381 15.4319 246.991 15.4532 247.58 15.2905C248.347 15.0782 248.985 14.5799 249.378 13.8877L251.487 10.1658L255.253 10.4329L265.281 20.4605C265.785 20.965 265.785 21.7855 265.28 22.2897ZM265.63 18.4248L256.223 9.01791C256.205 8.99987 256.186 8.98281 256.167 8.96674C256.031 8.85388 255.863 8.78565 255.686 8.77318L251.075 8.4461C250.756 8.42412 250.439 8.59373 250.282 8.8716L247.911 13.0564C247.74 13.3569 247.463 13.5731 247.13 13.6653C246.798 13.7575 246.449 13.7142 246.148 13.5439C245.847 13.3736 245.631 13.0964 245.539 12.7634C245.447 12.4304 245.49 12.0814 245.66 11.7809L248.826 6.19427L250.108 5.8252C250.117 5.82257 250.125 5.81929 250.134 5.81667L254.921 4.4342H260.706L267.927 13.6141L265.63 18.4248ZM269.031 12.2907L262.353 3.79678L265.762 1.62926L272.002 9.73473L269.031 12.2907Z" fill="white"/>
</g>
<defs>
<linearGradient id="paint0_linear" x1="206" y1="15" x2="-0.696012" y2="18.1122" gradientUnits="userSpaceOnUse">
<stop stop-color="white"/>
<stop offset="1" stop-color="white" stop-opacity="0.12"/>
</linearGradient>
<linearGradient id="paint1_linear" x1="300" y1="15" x2="506.696" y2="18.1122" gradientUnits="userSpaceOnUse">
<stop stop-color="white"/>
<stop offset="1" stop-color="white" stop-opacity="0.12"/>
</linearGradient>
<clipPath id="clip0">
<rect width="43" height="34" fill="white" transform="translate(231)"/>
</clipPath>
</defs>
</svg>
