<svg width="177" height="177" viewBox="0 0 177 177" fill="none" xmlns="http://www.w3.org/2000/svg">
<path d="M151.079 25.9208C134.363 9.20573 112.139 0 88.5 0C64.8608 0 42.6366 9.20573 25.9208 25.9208C9.20573 42.6363 0 64.8608 0 88.5C0 103.536 3.84491 118.394 11.1192 131.467C11.8154 132.718 13.3943 133.168 14.6454 132.472C15.8968 131.775 16.3466 130.197 15.6503 128.946C8.80437 116.641 5.18555 102.656 5.18555 88.5C5.18555 66.2457 13.8516 45.3238 29.5877 29.5877C45.3238 13.8516 66.2457 5.18555 88.5 5.18555C110.754 5.18555 131.676 13.8516 147.412 29.5877C163.148 45.3238 171.814 66.2461 171.814 88.5C171.814 110.754 163.148 131.676 147.412 147.412C131.676 163.148 110.754 171.814 88.5 171.814C62.817 171.814 38.9559 160.232 23.0345 140.036C22.1482 138.911 20.5178 138.718 19.3933 139.605C18.2687 140.491 18.0758 142.122 18.9622 143.246C35.8733 164.697 61.2185 177 88.5 177C112.139 177 134.363 167.794 151.079 151.079C167.794 134.364 177 112.139 177 88.5C177 64.8608 167.794 42.6363 151.079 25.9208Z" fill="#65A276"/>
<path d="M140.388 42.3472C127.407 37.4406 113.934 36.4837 102.453 39.6545C92.5755 42.3811 84.2018 48.8502 79.4789 57.4029C75.0131 65.491 74.2798 74.4288 77.5187 81.311C79.53 85.5853 82.8609 89.0983 86.889 91.5079C86.8517 92.4122 86.8302 93.3384 86.8302 94.2939V115.352C85.4678 113.241 83.8966 111.221 82.1708 109.334C83.7466 105.384 83.9796 100.998 82.7202 96.8404C81.179 91.7533 77.7942 87.7453 72.9323 85.25C66.4133 81.9043 57.3984 81.5171 49.4044 84.2402C36.6424 88.5874 30.93 96.9897 30.6932 97.3451C30.1982 98.088 30.1201 99.0335 30.4868 99.8473C30.8533 100.661 31.6128 101.23 32.4975 101.351C38.1677 102.132 41.1352 105.733 44.5711 109.903C48.5478 114.728 53.055 120.198 62.3095 121.307C63.0555 121.397 63.8002 121.441 64.541 121.441C70.0678 121.441 75.3518 118.987 79.0028 114.635C79.1546 114.454 79.2949 114.267 79.4394 114.081C82.7036 117.946 85.212 122.341 86.4313 126.773C86.5156 127.08 86.655 127.356 86.8309 127.6V143.469C86.8309 144.902 87.9918 146.062 89.4237 146.062C90.8559 146.062 92.0165 144.902 92.0165 143.469V94.2946C92.0165 94.1446 92.0189 93.9983 92.0199 93.85C94.4765 94.6534 97.0682 95.0835 99.6938 95.0835C100.394 95.0835 101.098 95.0527 101.802 94.9902C111.642 94.1183 119.944 87.1679 124.012 76.3986C124.367 75.4576 124.715 74.4426 125.075 73.2952C125.504 71.929 124.743 70.4739 123.377 70.0453C122.011 69.6166 120.556 70.3771 120.127 71.743C119.797 72.795 119.481 73.7187 119.161 74.5667C115.814 83.4288 109.153 89.1329 101.344 89.825C98.2602 90.0988 95.1447 89.5633 92.301 88.3959C94.0198 71.2262 102.988 66.3604 103.443 66.1243C104.715 65.4858 105.235 63.9401 104.605 62.6614C103.972 61.3771 102.419 60.8478 101.133 61.4819C100.622 61.7335 90.0667 67.1593 87.4259 85.5542C85.2141 83.8108 83.3939 81.617 82.2113 79.1034C79.6787 73.7218 80.3545 66.5464 84.019 59.9096C88.0713 52.571 95.2934 47.0104 103.833 44.653C112.989 42.1256 123.608 42.5135 134.156 45.7026C130.544 48.8772 127.687 52.4044 125.636 56.2313C124.959 57.4931 125.434 59.0647 126.696 59.7412C127.086 59.95 127.505 60.0493 127.918 60.0493C128.844 60.0493 129.739 59.5532 130.206 58.681C132.555 54.2995 136.182 50.335 140.989 46.8977C141.905 46.2823 142.347 45.1851 142.103 44.1656C141.784 42.8308 140.466 42.3728 140.388 42.3472ZM62.9266 116.159C55.7353 115.297 52.2561 111.075 48.573 106.605C45.7137 103.135 42.5519 99.298 37.5361 97.3316C40.0359 94.8775 44.4543 91.4045 51.0766 89.1488C57.7856 86.863 65.2532 87.1379 70.5646 89.863C74.1975 91.7278 76.6178 94.5808 77.7576 98.3438C78.4518 100.635 78.5168 103.025 78.0069 105.302C72.5931 100.667 66.2395 97.3472 60.0054 96.3353C58.5901 96.1075 57.2602 97.0658 57.0306 98.4793C56.8011 99.8926 57.7611 101.224 59.1747 101.454C64.895 102.382 70.8536 105.714 75.8026 110.283C75.56 110.631 75.3062 110.973 75.0297 111.302C71.974 114.945 67.5614 116.715 62.9266 116.159Z" fill="#65A276"/>
</svg>
