<svg width="177" height="177" viewBox="0 0 177 177" fill="none" xmlns="http://www.w3.org/2000/svg">
<path d="M151.079 25.9208C134.363 9.20573 112.139 0 88.5 0C64.8608 0 42.6366 9.20573 25.9208 25.9208C9.20573 42.6366 0 64.8608 0 88.5C0 112.139 9.20573 134.363 25.9208 151.079C42.6366 167.794 64.8608 177 88.5 177C112.139 177 134.363 167.794 151.079 151.079C167.794 134.363 177 112.139 177 88.5C177 64.8608 167.794 42.6366 151.079 25.9208ZM147.412 147.412C131.676 163.148 110.754 171.814 88.5 171.814C66.2457 171.814 45.3238 163.148 29.5877 147.412C13.8516 131.676 5.18555 110.754 5.18555 88.5C5.18555 66.2457 13.8516 45.3238 29.5877 29.5877C45.3238 13.8516 66.2457 5.18555 88.5 5.18555C110.754 5.18555 131.676 13.8516 147.412 29.5877C163.148 45.3238 171.814 66.2457 171.814 88.5C171.814 110.754 163.148 131.676 147.412 147.412Z" fill="#65A276"/>
<path d="M73.3213 113.065C67.3029 112.655 62.3763 109.338 59.1028 104.376C56.332 100.178 50.1066 99.5843 46.6841 103.377C44.6967 98.6889 43.2482 93.2417 43.4297 88.0934C43.9949 78.01 28.3519 77.2567 27.7555 87.1846C27.732 87.5804 27.2269 97.0053 31.7536 108.35C35.8239 118.55 44.8709 132.505 64.8854 141.482V147.553C64.8854 148.595 65.5098 149.536 66.4701 149.942C72.1715 152.348 78.4636 153.45 84.6441 153.132C86.0234 153.062 87.1062 151.924 87.1062 150.543V128.378C87.2649 120.47 81.2209 113.746 73.3213 113.065ZM81.921 128.351V147.995C77.889 147.926 73.8564 147.175 70.0713 145.788V139.734C70.0713 138.278 69.0076 137.624 67.874 137.132C48.833 128.876 40.3412 115.878 36.5703 106.428C32.4681 96.1473 32.9117 87.8435 32.9324 87.4954C33.1395 84.047 38.4443 84.3827 38.2514 87.8297C38.2369 88.1484 37.9361 95.7428 41.7046 104.909C42.8337 107.654 44.2224 110.296 45.8334 112.762C49.7906 120.022 58.4719 125.812 58.8411 126.056C61.6379 127.905 64.4968 123.578 61.7001 121.73C61.6202 121.677 53.6822 116.386 50.3562 110.224C48.8666 107.389 52.7391 104.149 54.7753 107.233C58.8944 113.475 65.2208 117.655 72.7754 118.223C78.0688 118.638 81.921 123.131 81.921 128.351Z" fill="#65A276"/>
<path d="M143.739 80.1581C138.565 78.5492 133.564 82.811 133.57 88.0851C133.576 93.0947 132.464 98.2999 130.39 103.214C127.823 100.391 122.359 99.7353 119.509 102.569C114.712 107.365 112.478 111.364 105.379 112.554C98.6025 113.691 90.4214 117.569 90.0588 125.718C89.7103 133.383 89.7103 140.632 89.7103 148.307C89.7103 152.239 91.6404 152.932 92.8759 152.972C97.8848 153.323 103.135 152.282 107.721 150.899C109.364 150.404 111.863 149.678 112.155 147.636C112.451 145.564 112.298 143.475 112.214 141.397C113.678 140.766 115.113 140.075 116.52 139.322C119.317 137.475 116.46 133.147 113.662 134.995C111.822 136.21 109.726 136.579 107.968 137.985C107.353 138.477 106.995 139.222 106.995 140.009C107.066 141.91 107.111 143.812 107.13 145.714C107.13 145.714 99.2901 148.025 94.8955 147.884C94.8955 140.47 94.9021 133.444 95.2326 126.085C96.1314 120.304 101.277 118.5 106.237 117.668C114.232 116.327 117.656 111.822 123.077 106.334C125.449 104.556 128.2 107.723 126.741 110.056C123.613 114.842 119.856 118.672 115.285 121.739C112.501 123.607 115.391 127.913 118.174 126.045C123.608 122.399 128.186 117.603 131.783 111.791C136.289 104.511 138.765 96.0898 138.756 88.0785C138.75 84.0494 144.113 84.197 144.088 88.6638C144.05 95.3511 142.392 102.404 139.292 109.061C136.27 115.551 131.88 121.37 126.557 126.148C124.044 128.404 127.554 132.222 130.02 130.008C135.869 124.76 140.673 118.378 143.993 111.25C147.405 103.921 149.231 96.1217 149.274 88.6928C149.298 84.3709 147.281 81.2599 143.739 80.1581Z" fill="#65A276"/>
<path d="M124.508 53.732C124.508 42.667 115.505 33.6653 104.441 33.6653C98.1197 33.6653 92.2476 36.6549 88.5002 41.549C84.7528 36.6549 78.8803 33.6653 72.5598 33.6653C69.8308 33.6653 67.182 34.2056 64.6875 35.2707C61.6045 36.5872 63.6407 41.3558 66.724 40.0397C68.5714 39.2508 70.5347 38.8512 72.5598 38.8512C78.406 38.8512 83.735 42.3006 86.1356 47.6393C87.0351 49.6392 89.9656 49.6399 90.8648 47.6393C93.2653 42.3006 98.5944 38.8512 104.441 38.8512C112.646 38.8512 119.322 45.5271 119.322 53.7323C119.322 75.4463 93.7832 87.4328 88.5264 89.6685C83.27 87.3229 57.6787 74.8123 57.6787 53.7323C57.6787 51.6564 58.1011 49.643 58.9346 47.7485C60.2846 44.6801 55.5377 42.5917 54.1881 45.6605C53.0635 48.217 52.4935 50.9325 52.4935 53.7323C52.4935 64.9677 58.6166 75.6748 70.2004 84.6959C78.7472 91.3514 87.1872 94.7472 87.5422 94.8886C88.1642 95.1272 88.7875 95.1334 89.4118 94.9069C89.7675 94.7735 98.2252 91.5619 106.787 84.9922C118.38 76.0952 124.508 65.2857 124.508 53.732Z" fill="#65A276"/>
</svg>
