<svg width="24" height="24" viewBox="0 0 24 24" fill="none" xmlns="http://www.w3.org/2000/svg">
<path d="M12.0001 0C5.37268 0 0 5.37268 0 12.0001C0 17.9441 4.32626 22.8667 9.9987 23.8199V14.5036H7.10393V11.1511H9.9987V8.67901C9.9987 5.81072 11.7506 4.24767 14.3096 4.24767C15.5353 4.24767 16.5886 4.339 16.8944 4.37923V7.37735L15.1194 7.37821C13.728 7.37821 13.4598 8.03927 13.4598 9.00968V11.1493H16.7798L16.3468 14.5019H13.4598V23.9001C19.397 23.1775 24 18.1294 24 11.9966C24 5.37268 18.6273 0 12.0001 0Z" fill="black"/>
</svg>
