<svg width="25" height="10" viewBox="0 0 25 10" fill="none" xmlns="http://www.w3.org/2000/svg">
<path d="M1.50298 0.27697C1.10366 -0.00081635 0.554756 0.097704 0.276969 0.497024C-0.00081813 0.896342 0.097703 1.44524 0.497022 1.72303L1.50298 0.27697ZM12.5 9L11.997 9.72303C12.2994 9.93335 12.7006 9.93335 13.003 9.72303L12.5 9ZM24.503 1.72303C24.9023 1.44524 25.0008 0.896341 24.723 0.497023C24.4452 0.0977029 23.8963 -0.000817346 23.497 0.276969L24.503 1.72303ZM0.497022 1.72303L11.997 9.72303L13.003 8.27697L1.50298 0.27697L0.497022 1.72303ZM13.003 9.72303L24.503 1.72303L23.497 0.276969L11.997 8.27697L13.003 9.72303Z" fill="black"/>
</svg>
