<svg width="177" height="177" viewBox="0 0 177 177" fill="none" xmlns="http://www.w3.org/2000/svg">
<path d="M151.079 25.9208C134.363 9.20573 112.139 0 88.5 0C69.4784 0 51.3483 5.94851 36.0696 17.2022C34.9167 18.0516 34.6706 19.6743 35.5196 20.8272C36.369 21.9802 37.9921 22.2266 39.1447 21.3772C53.5263 10.7846 70.5929 5.18555 88.5 5.18555C110.754 5.18555 131.676 13.8516 147.412 29.5877C163.148 45.3238 171.814 66.2457 171.814 88.5C171.814 110.754 163.148 131.676 147.412 147.412C131.676 163.148 110.754 171.814 88.5 171.814C66.2457 171.814 45.3238 163.148 29.5877 147.412C13.8516 131.676 5.18555 110.754 5.18555 88.5C5.18555 66.5119 13.6791 45.7666 29.1016 30.0862C30.1056 29.0653 30.0921 27.4236 29.0712 26.4197C28.05 25.4154 26.4086 25.4289 25.4047 26.4501C9.02216 43.1064 0 65.1429 0 88.5C0 112.139 9.20573 134.363 25.9208 151.079C42.6366 167.794 64.8608 177 88.5 177C112.139 177 134.363 167.794 151.079 151.079C167.794 134.363 177 112.139 177 88.5C177 64.8608 167.794 42.6366 151.079 25.9208Z" fill="#65A276"/>
<path d="M46.8088 75.7152C38.29 83.0264 28.2598 95.1184 28.8541 111.204C29.1182 118.344 31.8952 125.529 36.4737 130.917C44.3295 140.161 58.599 143.201 68.6161 135.421C72.5858 136.837 76.8394 137.758 81.2696 138.145C84.525 138.424 84.9741 133.263 81.7207 132.979C78.5478 132.702 75.4901 132.107 72.5966 131.242C75.6789 126.849 76.7453 121.378 75.5942 115.694C73.8152 106.909 67.4387 101.871 61.8127 97.4257C54.946 91.9998 49.5223 87.7142 51.0579 78.0915C51.4309 75.7559 48.6034 74.1761 46.8088 75.7152ZM58.5977 101.494C64.0038 105.766 69.1098 109.8 70.512 116.723C71.4067 121.141 70.4733 125.903 67.4943 129.36C58.6153 125.414 51.955 118.691 49.544 110.59C49.1358 109.218 47.6931 108.436 46.3193 108.845C44.9469 109.253 44.1656 110.697 44.5739 112.069C46.6059 118.896 51.1001 124.979 57.5702 129.659C59.2362 130.864 61.0041 131.951 62.8591 132.916C60.3666 134.141 57.5664 134.702 54.7991 134.702C42.8872 134.701 34.4624 122.535 34.0365 111.012C33.6161 99.6395 39.4682 90.4027 45.7783 83.8143C46.8548 92.2149 53.0273 97.0927 58.5977 101.494Z" fill="#65A276"/>
<path d="M109.15 98.0127C106.704 103.044 106.289 108.428 105.887 113.635C105.267 121.67 103.882 129.686 95.8343 133.412C93.6761 134.4 93.9575 137.69 96.2848 138.277C102.225 139.788 107.666 140.544 112.67 140.544C118.599 140.544 123.913 139.482 128.706 137.357C131.771 135.998 129.668 131.257 126.604 132.616C120.226 135.444 112.643 136.076 103.56 134.529C109.353 129.269 110.487 121.425 111.058 114.034C111.439 109.093 111.799 104.425 113.814 100.281C116.599 94.5543 122.696 90.3713 129.213 91.1664C130.892 100.738 129.029 110.017 123.65 116.538C121.548 119.087 125.471 122.48 127.651 119.837C132.183 114.342 134.724 107.219 134.998 99.2382C135.069 97.1937 134.986 95.1306 134.755 93.0633C138.605 95.2772 141.735 99.1362 143.003 103.639C144.751 109.846 143.052 117.234 138.459 123.401C136.456 126.089 140.615 129.187 142.617 126.499C148.165 119.05 150.175 109.979 147.995 102.233C145.946 94.9567 140.331 89.124 133.625 86.8793C132.585 82.7876 130.974 78.7356 128.82 74.8361C127.199 71.9017 122.66 74.4091 124.281 77.3434C125.821 80.1322 127.034 83.0026 127.93 85.8872C120.228 85.7599 112.806 90.495 109.15 98.0127Z" fill="#65A276"/>
<path d="M50.7819 67.0156C48.9448 69.7017 53.086 72.8324 55.062 69.943C56.86 67.3143 58.8786 64.9414 61.0517 62.8443C63.3676 67.6856 67.6124 71.2992 73.1299 73.0844C80.977 75.6236 88.543 73.0187 95.8101 70.0374C103.907 66.7155 110.302 64.0916 117.934 70.1511C119.786 71.6214 122.551 69.9333 122.089 67.6144C119.897 56.6041 114.281 41.9317 99.9727 34.5586C93.6214 31.2861 85.9983 30.1813 79.0573 31.5274C71.4221 33.0084 65.3733 37.2613 62.0259 43.5029C59.5935 48.0382 58.6926 52.8134 59.3636 57.3262C56.1821 60.0905 53.2924 63.3453 50.7819 67.0156ZM66.595 45.9536C70.2073 39.219 77.4885 36.1571 84.9719 36.1571C89.3416 36.1571 93.7804 37.2015 97.597 39.1682C107.714 44.3814 112.891 54.012 115.537 62.7427C107.688 59.5595 100.41 62.5453 93.842 65.2401C87.4679 67.8553 81.4471 70.325 74.7267 68.1509C70.4382 66.7632 66.7471 63.6139 65.196 59.322C72.9899 53.5207 82.1154 51.0151 90.358 52.8884C91.7543 53.2061 93.1437 52.3312 93.461 50.9349C93.7784 49.5386 92.9037 48.1492 91.5074 47.8318C84.5612 46.253 77.0567 47.1854 69.8039 50.5273C67.9367 51.3877 66.1221 52.3951 64.3708 53.5377C64.5104 51.0313 65.252 48.4572 66.595 45.9536Z" fill="#65A276"/>
</svg>
