<svg width="24" height="24" viewBox="0 0 24 24" fill="none" xmlns="http://www.w3.org/2000/svg">
<path fill-rule="evenodd" clip-rule="evenodd" d="M12 24C18.6274 24 24 18.6274 24 12C24 5.37256 18.6274 0 12 0C5.37256 0 0 5.37256 0 12C0 18.6274 5.37256 24 12 24ZM11.8711 7.46875L10.5586 13.8906L8.94727 7.46875H7.70508L6.07617 13.8789L4.75195 7.46875H3.28125L5.25 16H6.67383L8.33203 9.77148L9.95508 16H11.373L13.3418 7.46875H11.8711ZM14.4258 7.46875V16H17.5371C18.4941 16 19.2285 15.7852 19.7402 15.3555C20.2559 14.9258 20.5137 14.3105 20.5137 13.5098C20.5137 13.0254 20.3867 12.6113 20.1328 12.2676C19.8828 11.9199 19.5273 11.6836 19.0664 11.5586C19.4727 11.3867 19.7812 11.1445 19.9922 10.832C20.2031 10.5195 20.3086 10.168 20.3086 9.77734C20.3086 9.01172 20.0566 8.43555 19.5527 8.04883C19.0488 7.66211 18.3145 7.46875 17.3496 7.46875H14.4258ZM15.9082 14.8164V12.1504H17.6777C18.584 12.1699 19.0371 12.623 19.0371 13.5098C19.0371 13.9199 18.9062 14.2402 18.6445 14.4707C18.3828 14.7012 18.0195 14.8164 17.5547 14.8164H15.9082ZM17.3613 11.0605H15.9082V8.66406H17.3496C17.8574 8.66406 18.2305 8.75781 18.4688 8.94531C18.7109 9.13281 18.832 9.4375 18.832 9.85938C18.832 10.2422 18.7012 10.5391 18.4395 10.75C18.1816 10.957 17.8223 11.0605 17.3613 11.0605Z" fill="black"/>
</svg>
