<svg width="25" height="10" viewBox="0 0 25 10" fill="none" xmlns="http://www.w3.org/2000/svg">
<path d="M1.50298 9.72303C1.10366 10.0008 0.554756 9.9023 0.276969 9.50298C-0.00081813 9.10366 0.097703 8.55476 0.497022 8.27697L1.50298 9.72303ZM12.5 1L11.997 0.27697C12.2994 0.0666474 12.7006 0.0666474 13.003 0.27697L12.5 1ZM24.503 8.27697C24.9023 8.55476 25.0008 9.10366 24.723 9.50298C24.4452 9.9023 23.8963 10.0008 23.497 9.72303L24.503 8.27697ZM0.497022 8.27697L11.997 0.27697L13.003 1.72303L1.50298 9.72303L0.497022 8.27697ZM13.003 0.27697L24.503 8.27697L23.497 9.72303L11.997 1.72303L13.003 0.27697Z" fill="#999999"/>
</svg>
